<svg width="572" height="406" viewBox="0 0 572 406" fill="none" xmlns="http://www.w3.org/2000/svg">
<path fill-rule="evenodd" clip-rule="evenodd" d="M111 35H15C6.71573 35 0 41.7157 0 50V406H1V50C1 42.268 7.26801 36 15 36H111.014C111.005 35.6678 111 35.3344 111 35ZM460.986 36H557C564.732 36 571 42.268 571 50V406H572V50C572 41.7157 565.284 35 557 35H461C461 35.3344 460.995 35.6678 460.986 36Z" fill="white"/>
<rect x="111.5" y="0.5" width="349" height="69" rx="34.5" stroke="white"/>
<path d="M208.5 44H211.875L211.475 41.675V29.725L211.875 27.4H208.5L208.9 29.725V41.675L208.5 44ZM219.572 44.375C221.672 44.375 223.297 43.2 224.072 41.55L224.322 44H227.122L226.397 41.675V26.475L223.322 27.4L223.897 29.725V33.325C223.022 32.4 221.947 31.4 219.897 31.4C216.972 31.4 214.547 33.65 214.547 37.875C214.547 42.225 216.947 44.375 219.572 44.375ZM220.447 42.5C218.447 42.5 217.072 40.925 217.072 37.825C217.072 34.775 218.572 33.15 220.747 33.15C222.097 33.15 223.047 33.75 223.947 34.7V38.7C223.947 41.025 222.447 42.5 220.447 42.5ZM241.64 37.35C241.64 33.75 239.19 31.375 235.69 31.375C232.19 31.375 229.415 33.875 229.415 37.9C229.415 42.35 232.615 44.4 236.215 44.4C238.54 44.4 239.99 43.8 240.84 43.375L241.115 41.675C239.715 42.25 238.565 42.6 236.59 42.6C233.99 42.6 232.215 41.2 231.99 38.525H241.565C241.59 38.2 241.64 37.8 241.64 37.35ZM235.665 33.15C237.69 33.15 239.09 34.5 239.24 36.875H232.015C232.34 34.4 233.765 33.15 235.665 33.15ZM253.24 44H256.44L256.04 41.675V35.8C256.04 33.2 254.365 31.4 251.59 31.4C249.365 31.4 247.69 32.65 247.065 34.275V31.3L244.14 32.225L244.69 34.55V41.675L244.315 44H247.515L247.19 41.675V36.925C247.19 34.75 248.69 33.325 250.59 33.325C252.465 33.325 253.54 34.45 253.54 36.325V41.675L253.24 44ZM263.56 44.35C264.81 44.35 265.71 44.1 266.56 43.8L266.885 41.85C265.835 42.15 265.035 42.275 264.31 42.275C263.31 42.275 262.76 41.75 262.76 40.75V33.4H266.71V31.75H262.76V28.725H262.56L257.96 33.3V33.4H260.26V41.1C260.26 43.175 261.385 44.35 263.56 44.35ZM270.328 29.5L272.478 27.65L270.328 25.775L268.178 27.65L270.328 29.5ZM268.778 44H272.078L271.678 41.675V31.3L268.603 32.225L269.178 34.55V41.675L268.778 44ZM279.307 44.35C280.557 44.35 281.457 44.1 282.307 43.8L282.632 41.85C281.582 42.15 280.782 42.275 280.057 42.275C279.057 42.275 278.507 41.75 278.507 40.75V33.4H282.457V31.75H278.507V28.725H278.307L273.707 33.3V33.4H276.007V41.1C276.007 43.175 277.132 44.35 279.307 44.35ZM286.425 49.25C288.425 49.25 289.625 48.3 290.5 46.15L296.45 31.75H293.575L293.275 33.925L290.2 41.625L287.25 33.925L286.9 31.75H283.625L288.95 44.35L288.3 45.9C287.8 47.025 287.275 47.5 286.475 47.5C286.325 47.5 286.225 47.5 286.1 47.475L284.25 46.675V48.95C285.175 49.175 285.75 49.25 286.425 49.25ZM309.275 44.45C313.55 44.45 315.9 42.575 315.9 39.725C315.9 37.05 314.125 35.625 309.85 34.475C306.4 33.55 305.525 32.675 305.525 31.175C305.525 29.7 307.05 28.725 309.45 28.725C310.575 28.725 311.625 28.9 312.725 29.225L315.35 30.625L314.925 27.875C312.9 27.25 311.2 26.975 309.25 26.975C305.125 26.975 302.9 28.775 302.9 31.4C302.9 34 304.525 35.4 308.75 36.525C312.175 37.475 313.25 38.3 313.25 39.975C313.25 41.625 311.9 42.675 309.125 42.675C307.925 42.675 306.675 42.475 305.45 42.075L302.75 40.575L303.2 43.425C304.5 43.8 306.475 44.425 309.275 44.45ZM322.471 44.35C323.721 44.35 324.621 44.1 325.471 43.8L325.796 41.85C324.746 42.15 323.946 42.275 323.221 42.275C322.221 42.275 321.671 41.75 321.671 40.75V33.4H325.621V31.75H321.671V28.725H321.471L316.871 33.3V33.4H319.171V41.1C319.171 43.175 320.296 44.35 322.471 44.35ZM331.664 44.375C334.039 44.375 335.289 42.975 335.764 41.9L335.989 44H338.814L338.089 41.5V36.475C338.089 32.975 336.139 31.375 332.664 31.375C330.939 31.375 329.539 31.65 328.439 32L328.064 34.575L330.439 33.4C330.939 33.275 331.439 33.175 332.189 33.175C334.439 33.175 335.639 34.325 335.639 36.35V37.7C334.914 37.05 333.689 36.25 331.739 36.25C328.989 36.25 327.314 38.05 327.314 40.35C327.314 42.625 328.989 44.375 331.664 44.375ZM332.539 42.65C330.864 42.65 329.839 41.625 329.839 40.25C329.839 38.875 330.814 37.875 332.489 37.875C333.714 37.875 334.764 38.325 335.664 39.1V39.375C335.664 41.425 334.239 42.65 332.539 42.65ZM345.249 44.35C346.499 44.35 347.399 44.1 348.249 43.8L348.574 41.85C347.524 42.15 346.724 42.275 345.999 42.275C344.999 42.275 344.449 41.75 344.449 40.75V33.4H348.399V31.75H344.449V28.725H344.249L339.649 33.3V33.4H341.949V41.1C341.949 43.175 343.074 44.35 345.249 44.35ZM361.904 37.35C361.904 33.75 359.454 31.375 355.954 31.375C352.454 31.375 349.679 33.875 349.679 37.9C349.679 42.35 352.879 44.4 356.479 44.4C358.804 44.4 360.254 43.8 361.104 43.375L361.379 41.675C359.979 42.25 358.829 42.6 356.854 42.6C354.254 42.6 352.479 41.2 352.254 38.525H361.829C361.854 38.2 361.904 37.8 361.904 37.35ZM355.929 33.15C357.954 33.15 359.354 34.5 359.504 36.875H352.279C352.604 34.4 354.029 33.15 355.929 33.15Z" fill="white"/>
</svg>
